<?xml version="1.0" encoding="UTF-8" standalone="no"?><!DOCTYPE svg PUBLIC "-//W3C//DTD SVG 1.1//EN" "http://www.w3.org/Graphics/SVG/1.1/DTD/svg11.dtd"><svg width="100%" height="100%" viewBox="0 0 156 156" version="1.1" xmlns="http://www.w3.org/2000/svg" xmlns:xlink="http://www.w3.org/1999/xlink" xml:space="preserve" xmlns:serif="http://www.serif.com/" style="fill-rule:evenodd;clip-rule:evenodd;stroke-linejoin:round;stroke-miterlimit:1.41421;"><path d="M138,108l-15,0l0,-25.5l-15,0l0,25.5l-15,0l22.5,26.25l22.5,-26.25Zm-100.5,25.5l0,-29.25l15,18.75l15,-18.75l0,29.25l15,0l0,-51l-15,0l-15,18.75l-15,-18.75l-15,0l0,51l15,0Zm107.25,22.5l-133.5,0c-6.203,0 -11.25,-5.047 -11.25,-11.25l0,-73.5c0,-6.203 5.047,-11.25 11.25,-11.25l133.5,0c6.203,0 11.25,5.047 11.25,11.25l0,73.5c0,6.203 -5.047,11.25 -11.25,11.25" style="fill-rule:nonzero;"/><path d="M45.621,39.793l-17.508,0l-1.758,4.394l1.758,0c1.735,0 2.971,0.334 3.709,1.002c0.739,0.668 1.108,1.541 1.108,2.62c0,1.054 -0.369,1.916 -1.108,2.584c-0.738,0.667 -1.974,1.001 -3.709,1.001l-9.703,0c-1.734,0 -2.971,-0.334 -3.709,-1.001c-0.738,-0.668 -1.107,-1.542 -1.107,-2.62c0,-1.078 0.386,-1.957 1.16,-2.636c0.773,-0.68 2.051,-0.996 3.832,-0.95l11.32,-28.195l-4.711,0c-1.734,0 -2.97,-0.334 -3.709,-1.002c-0.738,-0.668 -1.107,-1.541 -1.107,-2.619c0,-1.078 0.369,-1.951 1.107,-2.619c0.739,-0.668 1.975,-1.002 3.709,-1.002l15.575,0.035l14.343,35.402c1.688,0 2.801,0.188 3.34,0.563c1.078,0.773 1.617,1.793 1.617,3.059c0,1.054 -0.363,1.916 -1.09,2.584c-0.726,0.667 -1.957,1.001 -3.691,1.001l-9.703,0c-1.734,0 -2.971,-0.334 -3.709,-1.001c-0.738,-0.668 -1.107,-1.542 -1.107,-2.62c0,-1.054 0.369,-1.916 1.107,-2.584c0.738,-0.668 1.975,-1.002 3.709,-1.002l1.758,0l-1.723,-4.394Zm-2.988,-7.207l-5.801,-14.274l-5.836,14.274l11.637,0Z" style="fill-rule:nonzero;"/><path d="M98.742,36.031c0,2.766 -0.767,5.444 -2.303,8.033c-1.535,2.59 -3.82,4.653 -6.855,6.188c-3.035,1.535 -6.205,2.303 -9.51,2.303c-3.281,0 -6.422,-0.756 -9.422,-2.268c-3,-1.512 -5.285,-3.568 -6.855,-6.17c-1.57,-2.601 -2.356,-5.32 -2.356,-8.156c0,-2.883 0.797,-5.713 2.391,-8.49c1.594,-2.778 3.885,-4.963 6.873,-6.557c2.988,-1.594 6.111,-2.391 9.369,-2.391c3.281,0 6.44,0.815 9.475,2.444c3.035,1.629 5.326,3.82 6.873,6.574c1.547,2.754 2.32,5.584 2.32,8.49Zm-7.207,0.035c0,-2.32 -0.832,-4.453 -2.496,-6.398c-2.273,-2.625 -5.262,-3.938 -8.965,-3.938c-3.258,0 -5.976,1.043 -8.156,3.129c-2.18,2.086 -3.27,4.5 -3.27,7.242c0,2.25 1.102,4.354 3.305,6.311c2.203,1.957 4.91,2.936 8.121,2.936c3.235,0 5.953,-0.979 8.156,-2.936c2.204,-1.957 3.305,-4.072 3.305,-6.346Z" style="fill-rule:nonzero;"/><path d="M134.531,10.613c0.446,-0.609 0.932,-1.066 1.459,-1.371c0.528,-0.305 1.096,-0.457 1.705,-0.457c1.055,0 1.916,0.363 2.584,1.09c0.668,0.726 1.002,1.957 1.002,3.691l0,6.118c0,1.734 -0.334,2.97 -1.002,3.709c-0.668,0.738 -1.529,1.107 -2.584,1.107c-0.961,0 -1.734,-0.27 -2.32,-0.809c-0.586,-0.539 -1.02,-1.547 -1.301,-3.023c-0.164,-0.984 -0.492,-1.746 -0.984,-2.285c-0.961,-1.055 -2.303,-1.899 -4.026,-2.532c-1.722,-0.632 -3.451,-0.949 -5.185,-0.949c-2.156,0 -4.137,0.469 -5.942,1.407c-1.804,0.937 -3.398,2.46 -4.781,4.57c-1.383,2.109 -2.074,4.617 -2.074,7.523l0,4.676c0,3.469 1.26,6.363 3.779,8.684c2.52,2.32 6.018,3.48 10.494,3.48c2.672,0 4.934,-0.363 6.786,-1.09c1.078,-0.422 2.226,-1.254 3.445,-2.496c0.75,-0.75 1.336,-1.236 1.758,-1.459c0.422,-0.222 0.902,-0.334 1.441,-0.334c0.961,0 1.805,0.363 2.531,1.09c0.727,0.727 1.09,1.582 1.09,2.566c0,0.985 -0.492,2.04 -1.476,3.165c-1.43,1.64 -3.27,2.929 -5.52,3.867c-3.023,1.265 -6.363,1.898 -10.019,1.898c-4.266,0 -8.11,-0.879 -11.532,-2.637c-2.765,-1.406 -5.121,-3.627 -7.066,-6.662c-1.945,-3.035 -2.918,-6.345 -2.918,-9.931l0,-4.887c0,-3.75 0.873,-7.248 2.619,-10.494c1.746,-3.246 4.166,-5.748 7.26,-7.506c3.094,-1.758 6.375,-2.637 9.844,-2.637c2.086,0 4.037,0.24 5.853,0.721c1.817,0.48 3.51,1.213 5.08,2.197Z" style="fill-rule:nonzero;"/></svg>